# xmcd CD database file
#
# Track frame offsets:
#	150
#	22970
#	45581
#	66994
#	96588
#
# Disc length: 1902 seconds
#
# Revision: 1
# Processed by: cddbd v1.5.2PL0 Copyright (c) Steve Scherf et al.
# Submitted via: jetAudio 5
#
DISCID=3e076c05
DTITLE=Little Ivory Blues Band - Little Ivory Blues Band
DYEAR=1900
DGENRE=
TTITLE0=Chicago Breakdown
TTITLE1=Road to Anywhere
TTITLE2=Soul Box
TTITLE3=High Stakes
TTITLE4=Sundown Blues in C Minor
EXTD=
EXTT0=
EXTT1=
EXTT2=
EXTT3=
EXTT4=
PLAYORDER=
